<?xml version="1.0" encoding="UTF-8"?>
<svg xmlns="http://www.w3.org/2000/svg" xmlns:xlink="http://www.w3.org/1999/xlink" width="100px" height="100px" viewBox="0 0 100 100" version="1.1">
<g id="surface1">
<path style=" stroke:none;fill-rule:nonzero;fill:rgb(0.392157%,43.529412%,81.568627%);fill-opacity:1;" d="M 0 0 L 99.75 0 L 99.75 53.984375 L 94.8125 61.71875 L 99.75 68.601562 L 99.75 100 L 0 100 L 0 49.109375 L 3.085938 45.554688 L 0 42.148438 Z M 0 0 "/>
<path style=" stroke:none;fill-rule:nonzero;fill:rgb(100%,100%,100%);fill-opacity:1;" d="M 19.363281 69.683594 L 19.363281 53.984375 L 35.945312 53.984375 L 37.726562 56.308594 L 39.5625 53.984375 L 99.75 53.984375 L 99.75 68.601562 C 99.75 68.601562 98.175781 69.667969 96.355469 69.683594 L 63.03125 69.683594 L 61.023438 67.207031 L 61.023438 69.683594 L 54.449219 69.683594 L 54.449219 65.457031 C 54.449219 65.457031 53.554688 66.046875 51.613281 66.046875 L 49.375 66.046875 L 49.375 69.683594 L 39.421875 69.683594 L 37.644531 67.308594 L 35.84375 69.683594 Z M 19.363281 69.683594 "/>
<path style=" stroke:none;fill-rule:nonzero;fill:rgb(100%,100%,100%);fill-opacity:1;" d="M 0 42.148438 L 3.738281 33.410156 L 10.207031 33.410156 L 12.328125 38.304688 L 12.328125 33.410156 L 20.367188 33.410156 L 21.628906 36.949219 L 22.855469 33.410156 L 58.941406 33.410156 L 58.941406 35.191406 C 58.941406 35.191406 60.835938 33.410156 63.957031 33.410156 L 75.664062 33.453125 L 77.75 38.285156 L 77.75 33.410156 L 84.476562 33.410156 L 86.328125 36.1875 L 86.328125 33.410156 L 93.117188 33.410156 L 93.117188 49.109375 L 86.328125 49.109375 L 84.554688 46.328125 L 84.554688 49.109375 L 74.667969 49.109375 L 73.675781 46.636719 L 71.019531 46.636719 L 70.039062 49.109375 L 63.339844 49.109375 C 60.65625 49.109375 58.941406 47.367188 58.941406 47.367188 L 58.941406 49.109375 L 48.835938 49.109375 L 46.828125 46.636719 L 46.828125 49.109375 L 9.25 49.109375 L 8.253906 46.636719 L 5.605469 46.636719 L 4.621094 49.109375 L 0 49.109375 Z M 0 42.148438 "/>
<path style=" stroke:none;fill-rule:nonzero;fill:rgb(0.392157%,43.529412%,81.568627%);fill-opacity:1;" d="M 5.0625 35.347656 L 0.0195312 47.101562 L 3.304688 47.101562 L 4.234375 44.746094 L 9.644531 44.746094 L 10.570312 47.101562 L 13.925781 47.101562 L 8.886719 35.347656 Z M 6.929688 38.082031 L 8.578125 42.195312 L 5.273438 42.195312 Z M 6.929688 38.082031 "/>
<path style=" stroke:none;fill-rule:nonzero;fill:rgb(0.392157%,43.529412%,81.568627%);fill-opacity:1;" d="M 14.273438 47.101562 L 14.273438 35.34375 L 18.9375 35.363281 L 21.652344 42.941406 L 24.300781 35.34375 L 28.929688 35.34375 L 28.929688 47.101562 L 26 47.101562 L 26 38.4375 L 22.890625 47.101562 L 20.320312 47.101562 L 17.203125 38.4375 L 17.203125 47.101562 Z M 14.273438 47.101562 "/>
<path style=" stroke:none;fill-rule:nonzero;fill:rgb(0.392157%,43.529412%,81.568627%);fill-opacity:1;" d="M 30.9375 47.101562 L 30.9375 35.34375 L 40.503906 35.34375 L 40.503906 37.972656 L 33.898438 37.972656 L 33.898438 39.984375 L 40.347656 39.984375 L 40.347656 42.460938 L 33.898438 42.460938 L 33.898438 44.546875 L 40.503906 44.546875 L 40.503906 47.101562 Z M 30.9375 47.101562 "/>
<path style=" stroke:none;fill-rule:nonzero;fill:rgb(0.392157%,43.529412%,81.568627%);fill-opacity:1;" d="M 42.199219 35.347656 L 42.199219 47.101562 L 45.132812 47.101562 L 45.132812 42.925781 L 46.367188 42.925781 L 49.878906 47.101562 L 53.464844 47.101562 L 49.605469 42.769531 C 51.1875 42.636719 52.820312 41.273438 52.820312 39.160156 C 52.820312 36.6875 50.886719 35.347656 48.722656 35.347656 Z M 45.132812 37.976562 L 48.480469 37.976562 C 49.285156 37.976562 49.871094 38.605469 49.871094 39.214844 C 49.871094 39.996094 49.113281 40.449219 48.527344 40.449219 L 45.132812 40.449219 Z M 45.132812 37.976562 "/>
<path style=" stroke:none;fill-rule:nonzero;fill:rgb(0.392157%,43.529412%,81.568627%);fill-opacity:1;" d="M 57.011719 47.101562 L 54.019531 47.101562 L 54.019531 35.34375 L 57.011719 35.34375 Z M 57.011719 47.101562 "/>
<path style=" stroke:none;fill-rule:nonzero;fill:rgb(0.392157%,43.529412%,81.568627%);fill-opacity:1;" d="M 64.109375 47.101562 L 63.464844 47.101562 C 60.335938 47.101562 58.4375 44.632812 58.4375 41.269531 C 58.4375 37.828125 60.316406 35.34375 64.265625 35.34375 L 67.503906 35.34375 L 67.503906 38.128906 L 64.144531 38.128906 C 62.542969 38.128906 61.410156 39.382812 61.410156 41.300781 C 61.410156 43.578125 62.707031 44.53125 64.574219 44.53125 L 65.34375 44.53125 Z M 64.109375 47.101562 "/>
<path style=" stroke:none;fill-rule:nonzero;fill:rgb(0.392157%,43.529412%,81.568627%);fill-opacity:1;" d="M 70.488281 35.347656 L 65.445312 47.101562 L 68.730469 47.101562 L 69.660156 44.746094 L 75.070312 44.746094 L 75.996094 47.101562 L 79.351562 47.101562 L 74.3125 35.347656 Z M 72.355469 38.082031 L 74.003906 42.195312 L 70.699219 42.195312 Z M 72.355469 38.082031 "/>
<path style=" stroke:none;fill-rule:nonzero;fill:rgb(0.392157%,43.529412%,81.568627%);fill-opacity:1;" d="M 79.691406 47.101562 L 79.691406 35.34375 L 83.421875 35.34375 L 88.179688 42.730469 L 88.179688 35.34375 L 91.109375 35.34375 L 91.109375 47.101562 L 87.503906 47.101562 L 82.625 39.519531 L 82.625 47.101562 Z M 79.691406 47.101562 "/>
<path style=" stroke:none;fill-rule:nonzero;fill:rgb(0.392157%,43.529412%,81.568627%);fill-opacity:1;" d="M 21.371094 67.671875 L 21.371094 55.917969 L 30.9375 55.917969 L 30.9375 58.546875 L 24.332031 58.546875 L 24.332031 60.558594 L 30.78125 60.558594 L 30.78125 63.03125 L 24.332031 63.03125 L 24.332031 65.121094 L 30.9375 65.121094 L 30.9375 67.671875 Z M 21.371094 67.671875 "/>
<path style=" stroke:none;fill-rule:nonzero;fill:rgb(0.392157%,43.529412%,81.568627%);fill-opacity:1;" d="M 68.246094 67.671875 L 68.246094 55.917969 L 77.8125 55.917969 L 77.8125 58.546875 L 71.207031 58.546875 L 71.207031 60.558594 L 77.625 60.558594 L 77.625 63.03125 L 71.207031 63.03125 L 71.207031 65.121094 L 77.8125 65.121094 L 77.8125 67.671875 Z M 68.246094 67.671875 "/>
<path style=" stroke:none;fill-rule:nonzero;fill:rgb(0.392157%,43.529412%,81.568627%);fill-opacity:1;" d="M 31.308594 67.671875 L 35.964844 61.867188 L 31.195312 55.917969 L 34.890625 55.917969 L 37.730469 59.59375 L 40.578125 55.917969 L 44.128906 55.917969 L 39.421875 61.792969 L 44.089844 67.671875 L 40.394531 67.671875 L 37.636719 64.050781 L 34.949219 67.671875 Z M 31.308594 67.671875 "/>
<path style=" stroke:none;fill-rule:nonzero;fill:rgb(0.392157%,43.529412%,81.568627%);fill-opacity:1;" d="M 44.4375 55.917969 L 44.4375 67.675781 L 47.445312 67.675781 L 47.445312 63.960938 L 50.53125 63.960938 C 53.144531 63.960938 55.121094 62.574219 55.121094 59.871094 C 55.121094 57.636719 53.570312 55.917969 50.914062 55.917969 Z M 47.445312 58.578125 L 50.695312 58.578125 C 51.539062 58.578125 52.140625 59.09375 52.140625 59.929688 C 52.140625 60.714844 51.542969 61.285156 50.6875 61.285156 L 47.445312 61.285156 Z M 47.445312 58.578125 "/>
<path style=" stroke:none;fill-rule:nonzero;fill:rgb(0.392157%,43.529412%,81.568627%);fill-opacity:1;" d="M 56.394531 55.917969 L 56.394531 67.671875 L 59.328125 67.671875 L 59.328125 63.496094 L 60.5625 63.496094 L 64.074219 67.671875 L 67.660156 67.671875 L 63.800781 63.339844 C 65.382812 63.207031 67.015625 61.84375 67.015625 59.730469 C 67.015625 57.257812 65.082031 55.917969 62.917969 55.917969 Z M 59.328125 58.546875 L 62.675781 58.546875 C 63.480469 58.546875 64.066406 59.175781 64.066406 59.785156 C 64.066406 60.566406 63.308594 61.019531 62.722656 61.019531 L 59.328125 61.019531 Z M 59.328125 58.546875 "/>
<path style=" stroke:none;fill-rule:nonzero;fill:rgb(0.392157%,43.529412%,81.568627%);fill-opacity:1;" d="M 79.167969 67.671875 L 79.167969 65.121094 L 85.035156 65.121094 C 85.902344 65.121094 86.28125 64.648438 86.28125 64.132812 C 86.28125 63.640625 85.90625 63.140625 85.035156 63.140625 L 82.382812 63.140625 C 80.078125 63.140625 78.796875 61.734375 78.796875 59.621094 C 78.796875 57.734375 79.972656 55.917969 83.394531 55.917969 L 89.105469 55.917969 L 87.871094 58.5625 L 82.933594 58.5625 C 81.988281 58.5625 81.699219 59.058594 81.699219 59.53125 C 81.699219 60.019531 82.058594 60.558594 82.777344 60.558594 L 85.554688 60.558594 C 88.125 60.558594 89.242188 62.019531 89.242188 63.929688 C 89.242188 65.988281 88 67.671875 85.417969 67.671875 Z M 79.167969 67.671875 "/>
<path style=" stroke:none;fill-rule:nonzero;fill:rgb(0.392157%,43.529412%,81.568627%);fill-opacity:1;" d="M 89.929688 67.671875 L 89.929688 65.121094 L 95.796875 65.121094 C 96.664062 65.121094 97.039062 64.648438 97.039062 64.132812 C 97.039062 63.640625 96.664062 63.140625 95.796875 63.140625 L 93.144531 63.140625 C 90.839844 63.140625 89.554688 61.734375 89.554688 59.621094 C 89.554688 57.734375 90.730469 55.917969 94.15625 55.917969 L 99.863281 55.917969 L 98.628906 58.5625 L 93.691406 58.5625 C 92.75 58.5625 92.457031 59.058594 92.457031 59.53125 C 92.457031 60.019531 92.816406 60.558594 93.539062 60.558594 L 96.316406 60.558594 C 98.886719 60.558594 100 62.019531 100 63.929688 C 100 65.988281 98.757812 67.671875 96.175781 67.671875 Z M 89.929688 67.671875 "/>
</g>
</svg>
